<?xml version="1.0" encoding="UTF-8"?>
<svg xmlns="http://www.w3.org/2000/svg" xmlns:xlink="http://www.w3.org/1999/xlink" viewBox="0 0 3173.54 1476.4">
  <defs>
    <style>
      .cls-1 {
        isolation: isolate;
      }

      .cls-2 {
        opacity: .99;
      }

      .cls-3 {
        fill: url(#radial-gradient);
        mix-blend-mode: screen;
        opacity: .45;
      }

      .cls-3, .cls-4 {
        stroke-width: 0px;
      }

      .cls-4 {
        fill: #fff;
      }
    </style>
    <radialGradient id="radial-gradient" cx="716.84" cy="754.27" fx="716.84" fy="754.27" r="24.03" gradientTransform="translate(-43319.48 -1550.02) scale(62.67 3.14)" gradientUnits="userSpaceOnUse">
      <stop offset=".01" stop-color="#d2ffff"/>
      <stop offset=".02" stop-color="#cdf9f9"/>
      <stop offset=".1" stop-color="#a3c6c6"/>
      <stop offset=".18" stop-color="#7c9797"/>
      <stop offset=".27" stop-color="#5a6e6e"/>
      <stop offset=".36" stop-color="#3e4c4c"/>
      <stop offset=".45" stop-color="#273030"/>
      <stop offset=".56" stop-color="#161a1a"/>
      <stop offset=".67" stop-color="#090b0b"/>
      <stop offset=".8" stop-color="#020202"/>
      <stop offset="1" stop-color="#000"/>
    </radialGradient>
  </defs>
  <g class="cls-1">
    <g id="Layer_3" data-name="Layer 3">
      <ellipse class="cls-3" cx="1606.76" cy="817.5" rx="1506.08" ry="75.43"/>
    </g>
    <g id="AstraVerse">
      <g id="A_V" data-name="A V" class="cls-2">
        <path id="A" class="cls-4" d="M1491.09,904.32h-38.07c3.32-5.53,138.11-230.12,141.62-235.98,5.61-10.08,16.61-16.34,28.76-16.34h22.25c23,41.73,116.95,212.42,138.89,252.32h-34.13c-7.21,0-13.84-3.86-17.24-10.03-16.98-30.84-32.96-59.87-44.24-80.35l-64.11-116.49c-76.36,124.87-120.87,197.65-122.68,200.64-2.21,3.85-6.42,6.23-11.03,6.23Z"/>
        <path id="V" class="cls-4" d="M1763.86,840.69l-103.46-188.69h28.53c10.58,0,20.18,5.5,25.04,14.37,73.9,134.79,62.78,114.62,65.88,120.19,4.34,7.69,4.42,16.92.17,24.65l-16.16,29.49ZM1829.9,904.32h-34.98c28.24-51.51,103.64-188.99,130.49-237.95,4.85-8.86,14.44-14.37,25.04-14.37h28.53c-.07.13-133.62,243.28-133.4,243.28-3.06,5.57-9.07,9.03-15.68,9.03Z"/>
      </g>
      <g id="A_S_T_R" data-name="A S T R">
        <path id="A-2" data-name="A" class="cls-4" d="M410.44,902.05h-38.47c3.36-5.6,139.57-232.87,143.12-238.8,5.67-10.2,16.79-16.54,29.06-16.54h22.48c23.24,42.23,118.19,214.96,140.37,255.33h-34.5c-7.29,0-13.99-3.91-17.42-10.15-17.16-31.21-33.31-60.59-44.71-81.31l-64.79-117.88c-77.17,126.36-122.15,200.01-123.98,203.03-2.23,3.9-6.49,6.31-11.15,6.31Z"/>
        <path id="T" class="cls-4" d="M949.62,665.12v-18.4h227.36c11.41,0,20.88,8.68,20.87,19.73v18.4h-227.36c-11.5,0-20.87-8.85-20.87-19.73ZM1052.89,719.9h20.83c11.51,0,20.87,8.85,20.87,19.73v162.51h-20.83c-11.5,0-20.87-8.85-20.87-19.73v-162.52Z"/>
        <rect class="cls-4" x="925.46" y="646.71" width="77.93" height="38.13"/>
        <path id="R" class="cls-4" d="M1196.08,684.94c-14.87,0-26.95-11.49-26.95-25.61v-12.6c.64,0,179.65,0,180.79,0,47.73-.86,80.95,35.05,80.95,73.41-.37,38.77-32.36,70.33-72.6,73.09,62.6,72.23,50.68,59.7,95.37,111.1h-39.58c-7.46,0-14.2-3.12-19.5-8.21-8.04-9.11,30.38,34.86-122.2-140.95,84.01-.07,78.6-.16,79.74-.07,21.32-.18,38.21-15.51,38.57-35.02-.36-19.52-17.24-34.84-38.57-35.02,0,0-78.38-.09-156.02-.09Z"/>
        <path id="S" class="cls-4" d="M703.29,720.08c0-42.08,37.56-74.5,81.19-73.33h168.57v18.4c0,10.87-9.37,19.72-20.89,19.72q-140.59-.01-150.03.09c-21.2.04-38.35,15.8-38.35,35.13s17.19,35.13,38.32,35.13c11.76,0,21.34,8.9,21.34,19.85v18.39h-21.34c-43.46,0-78.81-32.92-78.81-73.37ZM963.72,828.89c0,38.43-31.51,69.91-73.28,73.2-2.49.13-135.74-.03-183.44-.04v-18.4c0-10.87,9.36-19.72,20.89-19.72h159.4c19.5-.7,35.95-16.71,35.95-35.04,0-16.7-13.73-34.69-39.17-35.14-11.3-.19-20.49-9.04-20.49-19.71v-18.73l21.62.22c43.27.07,78.53,32.98,78.53,73.36Z"/>
      </g>
      <g id="E_R_S_E" data-name="E R S E">
        <rect class="cls-4" x="2682.23" y="651.97" width="77.93" height="38.1"/>
        <path id="E" class="cls-4" d="M1978.98,652h256.54v18.35c0,10.85-9.36,19.68-20.86,19.68h-223.26c-6.85,0-12.42-5.32-12.42-11.86v-26.17ZM2191.25,798.39h-212.27v-26.52c0-6.35,5.41-11.51,12.04-11.51h221.09v18.36c0,10.85-9.37,19.68-20.86,19.68ZM2239.34,906.75h-260.36v-26.58c0-6.31,5.37-11.45,11.97-11.45h227.53c11.5,0,20.86,8.83,20.86,19.67v18.36Z"/>
        <path id="R-2" data-name="R" class="cls-4" d="M2214.53,689.8c-15.08,0-27.34-11.36-27.34-25.33v-12.46c.65,0,182.22,0,183.38,0,48.41-.85,82.11,34.66,82.11,72.59-.38,38.34-32.82,69.55-73.64,72.28,63.5,71.43,51.4,59.03,96.74,109.86h-40.14c-7.57,0-14.4-3.09-19.78-8.12-8.16-9,30.81,34.48-123.95-139.39,85.22-.07,79.73-.15,80.88-.07,21.62-.18,38.76-15.33,39.12-34.64-.36-19.3-17.49-34.46-39.12-34.64,0,0-79.51-.09-158.26-.09Z"/>
        <path id="S-2" data-name="S" class="cls-4" d="M2471.62,725.17c0-41.97,37.53-74.3,81.13-73.14h168.45v18.35c0,10.84-9.36,19.67-20.88,19.67q-140.49-.01-149.92.09c-21.19.04-38.32,15.76-38.32,35.04s17.18,35.04,38.29,35.04c11.75,0,21.32,8.88,21.32,19.79v18.34h-21.32c-43.43,0-78.75-32.83-78.75-73.18ZM2731.85,833.69c0,38.33-31.49,69.72-73.23,73.01-2.49.13-135.64-.03-183.3-.04v-18.35c0-10.84,9.36-19.67,20.87-19.67h159.28c19.49-.69,35.92-16.67,35.92-34.94,0-16.65-13.72-34.59-39.14-35.05-11.29-.19-20.47-9.01-20.47-19.66v-18.68l21.6.22c43.24.07,78.47,32.89,78.47,73.17Z"/>
        <path id="E-2" data-name="E" class="cls-4" d="M2718.2,652h256.25v18.38c0,10.86-9.35,19.7-20.84,19.7h-223.01c-6.84,0-12.4-5.33-12.4-11.87v-26.2ZM2930.23,798.58h-212.03v-26.56c0-6.35,5.4-11.53,12.03-11.53h220.84v18.38c0,10.86-9.35,19.7-20.84,19.7ZM2978.27,907.09h-260.07v-26.62c0-6.32,5.37-11.46,11.96-11.46h227.28c11.49,0,20.83,8.84,20.83,19.7v18.38Z"/>
      </g>
      <path class="cls-4" d="M1649.95,817.5c-21.95,2.48-23.95,4.48-26.43,26.43-2.48-21.95-4.48-23.95-26.43-26.43,21.95-2.48,23.95-4.48,26.43-26.43,2.48,21.95,4.48,23.95,26.43,26.43Z"/>
      <path class="cls-4" d="M569.91,817.5c-21.95,2.48-23.95,4.48-26.43,26.43-2.48-21.95-4.48-23.95-26.43-26.43,21.95-2.48,23.95-4.48,26.43-26.43,2.48,21.95,4.48,23.95,26.43,26.43Z"/>
    </g>
  </g>
</svg>